<svg id="レイヤー_1" data-name="レイヤー 1" xmlns="http://www.w3.org/2000/svg" viewBox="0 0 763.83 184.18"><defs><style>.cls-1{fill:#2b73c2}</style></defs><path class="cls-1" d="M96.49 2.94A92.08 92.08 0 004.41 95a91.71 91.71 0 0018.86 55.81L99.82 50.27H83.41A127.65 127.65 0 0060.56 52a24.3 24.3 0 00-9.38 3.83c-3 2.14-6.87 6.69-9.37 11.15-.29.52-.71 1.28-1.25 2.39l-4.47-1L43.6 39.5h95.88L63.29 141.37a104.35 104.35 0 0111-.55c3.08 0 7.78.2 14 .57l13.53.84c4.87.27 9 .42 12.13.42 7 0 11.52-.55 16-1.93a37 37 0 009.86-4.74 45.86 45.86 0 0013.66-15.58c.3-.6.8-1.52 1.36-2.74l4.08 1a59.73 59.73 0 01-4 11.49c-4.09 9.15-8.72 15.27-15.07 20a37 37 0 01-22.3 7.35h-1.3c-6.33 0-11.22-.52-26.38-2.83-15.41-2.38-23.26-3.19-31-3.19a89.75 89.75 0 00-15 1.22 46.85 46.85 0 00-15.21 4.55A92.08 92.08 0 1096.49 2.94M570.6 66.88c0-6 .18-7.64.94-10.07a12.82 12.82 0 011.29-2.81 12.67 12.67 0 013.36-3.75H547.4a15.88 15.88 0 013.33 3.55 13.07 13.07 0 011.39 2.93c.66 2.17.88 4.33.94 9.65v59.13a26 26 0 01-1.41 8.69 12.8 12.8 0 01-1.43 2.61 21 21 0 01-2.74 3.16H576a11.26 11.26 0 01-2.76-3.16 13.3 13.3 0 01-1.43-2.74 24.3 24.3 0 01-1.2-7.87V66.88M762.29 66.84a36.26 36.26 0 011-9.5A14.19 14.19 0 01764.7 54a12.31 12.31 0 013.55-3.76H739a12.78 12.78 0 013.29 3.65 15.28 15.28 0 011.48 3.13c.69 2.11 1 4.74 1 9.43v21.82h-40.26V71.91c0-5 0-8.2.24-10.64a16.22 16.22 0 01.72-3.9 18.49 18.49 0 013.71-6.13c.2-.22.57-.56 1-1h-28.76a20.37 20.37 0 013 3.46 13.21 13.21 0 011.56 3c.74 2.27.88 3.51 1 9.49l.1 5.68V121a76.09 76.09 0 01-.37 9.45 19.11 19.11 0 01-.89 3.56 12.63 12.63 0 01-3.46 5c-.21.21-.53.5-1 .9h28.42a16.7 16.7 0 01-2.42-3 20.73 20.73 0 01-1.44-2.78 21.05 21.05 0 01-1.31-7.87V99.28h40.09v21.9a57.7 57.7 0 01-.41 9.11 13.87 13.87 0 01-.95 3.88 13 13 0 01-3.23 4.7c-.27.23-.64.64-1.23 1.12h28.66a17 17 0 01-2.4-2.78 14.37 14.37 0 01-1.66-2.94c-.88-2.12-1.08-3.69-1.19-8.12 0-2.63-.06-4.17-.06-4.64l.06-49.36v-5.31M498.83 89.79a29 29 0 01-11.3 3.64 31.93 31.93 0 01-4.69.42c-.45 0-.76 0-1.45-.06V60.58h2.34A45.23 45.23 0 01495.79 62a16.5 16.5 0 016.11 3.24c3 2.59 4.62 6.34 4.62 11A14.8 14.8 0 01503 86.43a17.49 17.49 0 01-4.18 3.36zm34.26 44c-3.16-3-6-5.85-10.17-10.42-2.66-2.86-4.85-5.32-6.54-7.29l-13.94-16.43a36.15 36.15 0 004-1.37 38.18 38.18 0 0011.07-6.4 22 22 0 008.16-17.14 20.84 20.84 0 00-6-14.72A29.66 29.66 0 00505 51.93c-4-.93-8.19-1.36-15.33-1.55-2.69-.07-5.48-.11-8.32-.11H458.2a15.87 15.87 0 013 3.38 12.89 12.89 0 011.59 3.28c.61 2 .86 4.8.86 9.55v58.87c0 4.24-.27 6.71-1 8.69a13.39 13.39 0 01-1.54 2.83 21 21 0 01-3 3.12h28.53a24.11 24.11 0 01-2.48-2.91 12.34 12.34 0 01-1.52-2.74c-.77-2-1.13-4.13-1.13-8.3 0-1.34-.07-2.85-.07-4.48v-20.19L498 121.3c.78 1 2 2.38 3.71 4.35 1.95 2.18 3.4 3.81 4.41 4.82a39.46 39.46 0 009.25 7.37 18.69 18.69 0 008.9 2.09c1.47 0 3 .06 4.68.06h11.25c-1.49-1.19-2.12-1.69-3.27-2.7s-2.52-2.21-3.85-3.52M656.68 127a38.94 38.94 0 01-15.68 3.35c-9.28 0-17.22-3.3-23.11-9.65s-8.89-15-8.89-24.86c0-9.39 2.91-18.12 8.09-24.21a29.66 29.66 0 018.1-6.63 35.45 35.45 0 0117.37-4.31 42.2 42.2 0 0116.11 3.24 28.71 28.71 0 017.38 4V51.1a45.12 45.12 0 00-5.44-1.48 75.27 75.27 0 00-15.8-1.62 64.33 64.33 0 00-25.56 4.76 51.81 51.81 0 00-12.34 7.31c-11.06 8.91-17.07 21.8-17.07 36.67 0 14.43 5.8 26.89 16.38 35.27 8.74 6.89 20 10.37 33.51 10.37a81.92 81.92 0 0025.19-4l1.46-.46v-16.3c-2.16 1.43-2.89 1.89-4.18 2.65a47.28 47.28 0 01-5.52 2.74M418.15 53.75a12.86 12.86 0 011.32 3c.63 2.17.79 4.36.79 9.39v34.16a102 102 0 01-.76 15.24 18.16 18.16 0 01-2.3 6.58 17.9 17.9 0 01-11 7.68 26.59 26.59 0 01-6.37.73c-7.7 0-14.31-2.88-17.52-7.6-2.47-3.66-3.15-7.14-3.27-16.37l-.04-7.39v-27c0-5.24 0-7.74.21-10.41a17.49 17.49 0 01.66-4.12 20.66 20.66 0 013.59-6.5c.2-.19.41-.43.76-.8H355a12 12 0 013.25 3.63 11.73 11.73 0 011.29 3.03 19.44 19.44 0 01.61 4.14v36.45c0 9.54 0 12 .36 15.79a28.89 28.89 0 006.36 16.62c6.79 8.54 17.71 13 31.64 13a53.84 53.84 0 0018-2.83 34.59 34.59 0 0013.36-8.91c4.15-4.65 6.53-10.37 7.23-17.43a147.11 147.11 0 00.62-16V72l-.07-5.12v-1a31 31 0 01.77-8.19 13.05 13.05 0 015.06-7.36H414.9a11.67 11.67 0 013.25 3.46M319.77 127.38a90.53 90.53 0 01-14.09 1.27h-20.92l54.39-78.43h-70.56l-8.66 19.15a56.57 56.57 0 016.56-3.09 65.2 65.2 0 0112.68-3.59 85 85 0 0112.65-1.1c2.49-.08 4.82-.12 7-.12h10.44L254.34 140h77.59l9-20.47a62 62 0 01-6.6 3.45 57.83 57.83 0 01-14.52 4.41" transform="translate(-4.41 -2.94)"/></svg>